<?xml version="1.0" standalone="no"?><!DOCTYPE svg PUBLIC "-//W3C//DTD SVG 1.1//EN" "http://www.w3.org/Graphics/SVG/1.1/DTD/svg11.dtd"><svg t="1781252776467" class="icon" viewBox="0 0 1024 1024" version="1.1" xmlns="http://www.w3.org/2000/svg" p-id="23639" xmlns:xlink="http://www.w3.org/1999/xlink" width="32" height="32"><path d="M721.109333 426.666667h121.472c3.968 15.36 6.869333 31.189333 8.661334 47.36a42.666667 42.666667 0 0 0 84.821333-9.386667C912.469333 251.306667 731.648 85.333333 512 85.333333 276.352 85.333333 85.333333 276.352 85.333333 512c0 219.008 165.12 402.261333 378.368 426.282667a42.837333 42.837333 0 0 0 45.653334-27.434667 42.752 42.752 0 0 0-16.469334-50.432c-23.253333-16.256-51.2-57.898667-73.386666-123.178667A610.56 610.56 0 0 1 403.84 682.666667H426.666667a42.666667 42.666667 0 1 0 0-85.333334h-37.76C385.706667 569.6 384 541.013333 384 512c0-29.568 1.578667-58.112 4.437333-85.333333h247.125334l0.426666 4.266666A42.666667 42.666667 0 0 0 721.066667 426.666667zM360.362667 206.122667c-2.773333 5.546667-5.461333 11.221333-8.021334 17.024-15.36 34.56-27.861333 74.496-36.906666 118.186666H216.32a342.869333 342.869333 0 0 1 144.042667-135.210666zM512 170.666667c16.554667 0 42.752 13.909333 69.802667 63.104 15.658667 28.458667 29.269333 64.981333 39.338666 107.562666H402.858667c7.381333-31.232 16.725333-59.392 27.434666-83.541333 13.994667-31.488 29.568-54.314667 44.672-68.693333 14.933333-14.208 27.349333-18.432 37.034667-18.432z m196.565333 170.666666c-10.538667-50.773333-25.728-96.725333-44.928-135.210666A342.912 342.912 0 0 1 807.68 341.333333h-99.114667z m-405.888 85.333334A896.554667 896.554667 0 0 0 298.666667 512c0 28.8 1.536 57.386667 4.394666 85.333333H181.376a344.064 344.064 0 0 1 0.042667-170.666666h121.258666z m13.653334 256c6.144 28.885333 13.653333 56.405333 22.357333 82.005333 6.528 19.2 13.909333 37.802667 22.101333 55.466667A345.514667 345.514667 0 0 1 215.893333 682.666667h100.437334z" fill="#1a1a1a" p-id="23640"></path><path d="M876.16 574.464a213.333333 213.333333 0 1 0-301.653333 301.696 213.333333 213.333333 0 0 0 301.653333-301.653333z m-35.285333 206.08l-170.709334-170.752a128.042667 128.042667 0 0 1 170.666667 170.752z m-231.082667-110.421333l170.752 170.752a128.042667 128.042667 0 0 1-170.752-170.709334z" fill="#1a1a1a" p-id="23641"></path></svg>