<?xml version="1.0" standalone="no"?><!DOCTYPE svg PUBLIC "-//W3C//DTD SVG 1.1//EN" "http://www.w3.org/Graphics/SVG/1.1/DTD/svg11.dtd"><svg t="1781247189623" class="icon" viewBox="0 0 1024 1024" version="1.1" xmlns="http://www.w3.org/2000/svg" p-id="17012" xmlns:xlink="http://www.w3.org/1999/xlink" width="12" height="12"><path d="M74.873 70.383h416.025q4.424 0 4.424 4.424v416.025q0 4.423-4.424 4.423H74.873q-4.424 0-4.424-4.423V74.807q0-4.424 4.424-4.424z" fill="#0099FF" p-id="17013"></path><path d="M530.536 70.383h421.157q1.858 0 1.858 1.858v421.156q0 1.858-1.858 1.858H530.536q-1.858 0-1.858-1.858V72.241q0-1.858 1.858-1.858z" fill="#00D9FC" p-id="17014"></path><path d="M74.873 528.745h416.025q4.424 0 4.424 4.423v416.025q0 4.424-4.424 4.424H74.873q-4.424 0-4.424-4.424V533.168q0-4.423 4.424-4.423z" fill="#0053FF" p-id="17015"></path><path d="M530.536 528.745h421.157q1.858 0 1.858 1.858v421.156q0 1.858-1.858 1.858H530.536q-1.858 0-1.858-1.858V530.603q0-1.858 1.858-1.858z" fill="#00B1EF" p-id="17016"></path></svg>